<svg width="110" height="110" viewBox="0 0 110 110" fill="none" xmlns="http://www.w3.org/2000/svg">
    <path fill-rule="evenodd" clip-rule="evenodd" d="M82.7407 18.8153H20.8044C17.2735 42.3865 17.2735 66.5328 20.8044 90.104H82.7407C86.2715 66.5328 86.2715 42.3865 82.7407 18.8153ZM53.656 46.8743L53.6881 45.9544C53.8598 41.0233 57.4492 36.8658 62.301 35.9785C63.4296 35.7721 64.478 36.6169 64.5319 37.7629C64.7749 42.9383 61.3002 47.6201 56.2613 48.8328L56.1015 48.8713C54.8242 49.1787 53.6103 48.1875 53.656 46.8743ZM47.5357 56.1888L47.5434 57.1061C47.5544 58.4204 46.3148 59.3781 45.046 59.0355L44.8847 58.9919C39.8813 57.6407 36.5324 52.8654 36.9121 47.6986C36.9962 46.5542 38.0666 45.7385 39.1893 45.976C44.016 46.9971 47.4943 51.2533 47.5357 56.1888ZM61.9428 61.8601L61.8344 62.7794C61.2572 67.6757 57.3381 71.5071 52.4304 71.9728C51.2889 72.0811 50.3138 71.1492 50.3546 70.0033C50.5389 64.8253 54.3891 60.4587 59.5125 59.6844L59.6704 59.6606C60.9686 59.4644 62.0965 60.5561 61.9428 61.8601Z" fill="#EAEDBD"/>
    <path d="M84.5574 9.16544C84.7471 8.29217 83.7835 7.62753 83.0346 8.11513L80.8367 9.54618L76.5034 7.03824C75.8968 6.68716 75.1507 6.67924 74.5367 7.01737L69.9452 9.54618L64.9684 6.95382C64.3894 6.6522 63.6995 6.6522 63.1205 6.95384L58.144 9.54618L52.446 6.8826C51.892 6.6236 51.2499 6.63235 50.7031 6.90634L45.4349 9.54618L40.3765 6.94843C39.7957 6.65018 39.106 6.65416 38.5287 6.9591L33.6311 9.54618L28.7368 6.99679C28.1125 6.67164 27.3633 6.69854 26.764 7.06764L22.7396 9.54618L20.5395 8.11367C19.7906 7.62607 18.8269 8.2907 19.0166 9.16397L20.5839 16.3786H82.9905L84.5574 9.16544Z" fill="#EAEDBD"/>
    <path d="M84.5574 99.7446C84.7471 100.618 83.7835 101.283 83.0346 100.795L80.8367 99.3639L76.5034 101.872C75.8968 102.223 75.1507 102.231 74.5367 101.893L69.9452 99.3639L64.9684 101.956C64.3894 102.258 63.6995 102.258 63.1205 101.956L58.144 99.3639L52.446 102.027C51.892 102.286 51.2499 102.278 50.7031 102.004L45.4349 99.3639L40.3765 101.962C39.7957 102.26 39.106 102.256 38.5287 101.951L33.6311 99.3639L28.7368 101.913C28.1125 102.238 27.3633 102.211 26.764 101.842L22.7396 99.3639L20.5395 100.796C19.7906 101.284 18.8269 100.619 19.0166 99.7461L20.5839 92.5314H82.9905L84.5574 99.7446Z" fill="#EAEDBD"/>
    <path d="M82.6673 107.539C92.2608 107.539 99.9675 99.6109 99.9675 89.9186C99.9675 80.2264 92.2608 72.2981 82.6673 72.2981C73.0739 72.2981 65.3672 80.2264 65.3672 89.9186C65.3672 99.6109 73.0739 107.539 82.6673 107.539Z" fill="#EAEDBD" stroke="#1D1C1C" stroke-width="4" stroke-linecap="round" stroke-linejoin="round"/>
    <path d="M76.0312 90.2136L81.2275 95.0766L89.6715 85.3506" stroke="#1D1C1C" stroke-width="4" stroke-linecap="round" stroke-linejoin="round"/>
</svg>
