<svg width="106" height="106" viewBox="0 0 106 106" fill="none" xmlns="http://www.w3.org/2000/svg">
    <path d="M48.5833 83.9167C68.0974 83.9167 83.9167 68.0974 83.9167 48.5833C83.9167 29.0693 68.0974 13.25 48.5833 13.25C29.0693 13.25 13.25 29.0693 13.25 48.5833C13.25 68.0974 29.0693 83.9167 48.5833 83.9167Z" stroke="#EAEDBD" stroke-width="6" stroke-linecap="round" stroke-linejoin="round"/>
    <path d="M92.7438 92.7502L73.5312 73.5377" stroke="#EAEDBD" stroke-width="6" stroke-linecap="round" stroke-linejoin="round"/>
    <path d="M51.5798 67.9659C51.2188 67.916 50.8537 67.8877 50.4984 67.8114C50.0383 67.7124 49.582 67.5904 49.1328 67.4502C48.7405 67.3278 48.4979 67.0387 48.367 66.6507C47.5111 64.1136 47.7567 61.6676 49.0863 59.364C50.6013 56.7392 52.9064 55.1916 55.8967 54.6936C57.3421 54.453 58.7697 54.5894 60.1633 55.0571C60.6011 55.2041 60.8932 55.4784 61.0366 55.9208C62.0298 58.982 61.4899 61.7877 59.5515 64.3142C58.0572 66.2619 56.0465 67.4109 53.6272 67.8397C53.3128 67.8956 52.9934 67.9243 52.676 67.9659H51.5798ZM52.1001 65.6075C52.102 65.5875 52.1035 65.5678 52.1054 65.5478C52.2942 65.5478 52.483 65.5478 52.6718 65.5478C52.6968 65.5478 52.7221 65.5456 52.7471 65.5429C54.67 65.3287 56.2751 64.4978 57.5007 63.0047C58.8598 61.3487 59.3608 59.4569 58.9169 57.3396C58.8938 57.2292 58.8552 57.1556 58.7349 57.1404C58.3297 57.0894 57.9252 56.9984 57.5192 56.9897C55.331 56.9425 53.4872 57.7412 52.0464 59.3749C50.5707 61.0483 50.022 63.002 50.4802 65.21C50.5052 65.3306 50.5525 65.3952 50.6819 65.4118C51.1553 65.4723 51.6275 65.5418 52.1005 65.6083L52.1001 65.6075Z" fill="#EAEDBD" stroke="#EAEDBD" stroke-width="2"/>
    <path d="M33.996 41.9541C37.8732 41.9533 41.6835 44.9279 42.7066 49.1139C43.1126 50.7752 43.0275 52.4164 42.4629 54.032C42.3229 54.4325 42.0588 54.7053 41.6525 54.8364C38.6686 55.7999 35.8769 55.3635 33.3138 53.6005C31.2672 52.1928 29.9875 50.2379 29.4869 47.7975C29.1691 46.2477 29.2894 44.7224 29.8176 43.23C29.9568 42.8367 30.2251 42.5779 30.6213 42.4418C31.5702 42.1162 32.5446 41.9495 33.996 41.9537V41.9541ZM40.5438 51.2206C40.4942 50.7812 40.4795 50.3951 40.4046 50.021C39.9581 47.793 38.6985 46.1604 36.6953 45.1131C35.2696 44.3676 33.7504 44.1632 32.1677 44.4919C32.0591 44.5146 31.9554 44.524 31.9217 44.674C31.7477 45.4501 31.7034 46.2322 31.8264 47.0166C32.1351 48.9839 33.125 50.5413 34.7543 51.6717C36.3715 52.7939 38.1634 53.1751 40.1072 52.7897C40.2631 52.7587 40.3455 52.6975 40.3656 52.5302C40.4193 52.076 40.4886 51.6234 40.5442 51.2206H40.5438Z" fill="#EAEDBD" stroke="#EAEDBD" stroke-width="2"/>
    <path d="M52.1166 42.7162C51.1173 42.6962 50.1486 42.5288 49.2042 42.2125C48.7872 42.0728 48.5087 41.8015 48.3676 41.384C47.5049 38.8265 47.7607 36.3653 49.1115 34.0492C50.6042 31.4895 52.8604 29.9642 55.7777 29.4417C57.2863 29.1715 58.7748 29.3094 60.2263 29.8104C60.6285 29.9495 60.8919 30.223 61.0285 30.625C61.8545 33.062 61.6603 35.4325 60.4401 37.6805C58.9444 40.4356 56.5973 42.0542 53.5063 42.5855C53.0493 42.6641 52.5801 42.6743 52.1169 42.7162H52.1166ZM59.1143 33.4753C59.0469 33.0038 58.978 32.5323 58.9133 32.0604C58.8974 31.944 58.8456 31.8828 58.723 31.8711C58.1978 31.8205 57.6723 31.709 57.149 31.7203C55.2264 31.7619 53.5756 32.4866 52.2554 33.8766C50.6367 35.5809 50.0056 37.6004 50.4759 39.932C50.5054 40.0786 50.5792 40.1213 50.7082 40.1489C51.9062 40.4058 53.0856 40.3325 54.2483 39.9562C57.0896 39.0365 59.0688 36.3785 59.1143 33.4753Z" fill="#EAEDBD" stroke="#EAEDBD" stroke-width="2"/>
</svg>
