<svg width="27" height="18" viewBox="0 0 27 18" fill="none" xmlns="http://www.w3.org/2000/svg">
<g clip-path="url(#clip0_566_785)">
<path d="M25.8253 13.1734V12.8781H25.7488L25.6602 13.0808L25.5722 12.8781H25.4954V13.1734H25.5498V12.951L25.6326 13.1429H25.6889L25.7717 12.9505V13.1734H25.8255H25.8253ZM25.3398 13.1734V12.9287H25.4378V12.8789H25.1875V12.9287H25.2855V13.1734H25.3393H25.3398Z" fill="white"/>
<path d="M10.9325 8.46003C10.9325 6.03398 12.0628 3.87283 13.823 2.4801C12.4906 1.42432 10.8427 0.85131 9.14596 0.853829C4.96626 0.853829 1.57812 4.25919 1.57812 8.46003C1.57812 12.6609 4.96626 16.0662 9.14596 16.0662C10.8428 16.0688 12.4907 15.4958 13.8231 14.44C12.0631 13.0475 10.9325 10.8862 10.9325 8.46003Z" fill="white" fill-opacity="0.5"/>
<path d="M26.0738 8.46025C26.0738 12.6611 22.6856 16.0665 18.5059 16.0665C16.8089 16.069 15.1608 15.496 13.8281 14.4402C15.5888 13.0474 16.7192 10.8864 16.7192 8.46025C16.7192 6.03407 15.5888 3.87305 13.8281 2.48031C15.1607 1.42456 16.8089 0.851567 18.5058 0.854042C22.6855 0.854042 26.0736 4.25941 26.0736 8.46025" fill="white"/>
</g>
<defs>
<clipPath id="clip0_566_785">
<rect width="26.3351" height="16.3027" fill="white" transform="translate(0 0.843567)"/>
</clipPath>
</defs>
</svg>
