<svg width="126" height="20" viewBox="0 0 126 20" fill="none" xmlns="http://www.w3.org/2000/svg">
<g clip-path="url(#clip0_566_1162)">
<path d="M126.061 12.8472V13.0312H126.242C126.276 13.0317 126.31 13.0236 126.339 13.0078C126.351 12.9998 126.36 12.9893 126.367 12.977C126.373 12.9647 126.376 12.951 126.376 12.9374C126.376 12.9239 126.373 12.9106 126.367 12.8986C126.36 12.8866 126.351 12.8763 126.339 12.8688C126.31 12.8521 126.276 12.844 126.242 12.8453H126.061V12.8472ZM126.244 12.717C126.322 12.7124 126.398 12.7336 126.461 12.7768C126.487 12.7964 126.507 12.8213 126.52 12.8496C126.533 12.8779 126.539 12.9088 126.538 12.9397C126.539 12.9663 126.534 12.9928 126.523 13.0175C126.513 13.0422 126.497 13.0644 126.476 13.0828C126.428 13.1228 126.367 13.1469 126.303 13.1513L126.545 13.4136H126.359L126.136 13.1532H126.063V13.4136H125.907V12.7174H126.247L126.244 12.717ZM126.196 13.6538C126.278 13.6545 126.359 13.6388 126.434 13.6078C126.506 13.5782 126.572 13.5359 126.628 13.4831C126.684 13.4303 126.728 13.3678 126.759 13.299C126.823 13.1532 126.823 12.9893 126.759 12.8435C126.728 12.7749 126.683 12.7125 126.628 12.6594C126.572 12.6066 126.506 12.5643 126.434 12.5347C126.358 12.5054 126.277 12.4907 126.196 12.4915C126.113 12.4908 126.03 12.5054 125.953 12.5347C125.879 12.5638 125.812 12.6061 125.755 12.6594C125.669 12.7429 125.611 12.8485 125.588 12.9631C125.565 13.0776 125.578 13.196 125.625 13.3036C125.655 13.3727 125.699 13.4353 125.755 13.4877C125.812 13.541 125.879 13.5833 125.953 13.6124C126.03 13.6434 126.112 13.6591 126.196 13.6584M126.196 12.324C126.409 12.3238 126.613 12.4031 126.766 12.5449C126.839 12.6129 126.897 12.6941 126.937 12.7837C126.979 12.8757 127 12.9747 127 13.0747C127 13.1747 126.979 13.2738 126.937 13.3657C126.896 13.4548 126.838 13.5358 126.766 13.6046C126.691 13.6722 126.605 13.7268 126.51 13.7656C126.411 13.8057 126.304 13.826 126.196 13.8254C126.086 13.8262 125.978 13.8058 125.878 13.7656C125.782 13.7277 125.694 13.6731 125.62 13.6046C125.548 13.5333 125.49 13.4496 125.451 13.3579C125.409 13.2659 125.388 13.1669 125.388 13.0669C125.388 12.9668 125.409 12.8678 125.451 12.7759C125.491 12.6863 125.549 12.6051 125.622 12.537C125.696 12.4674 125.783 12.4126 125.88 12.376C125.981 12.3358 126.089 12.3154 126.198 12.3162M51.9363 9.63543C51.9363 8.30794 52.8529 7.21743 54.351 7.21743C55.7826 7.21743 56.7487 8.26101 56.7487 9.63543C56.7487 11.0099 55.7826 12.0534 54.351 12.0534C52.8529 12.0534 51.9363 10.9629 51.9363 9.63543ZM58.3806 9.63543V5.85773H56.6497V6.778C56.1008 6.09792 55.2681 5.67137 54.1356 5.67137C51.9048 5.67137 50.154 7.33154 50.154 9.63727C50.154 11.943 51.9038 13.6032 54.1356 13.6032C55.2676 13.6032 56.1008 13.1762 56.6497 12.4966V13.4136H58.3787V9.63543H58.3806ZM116.865 9.63543C116.865 8.30794 117.781 7.21743 119.28 7.21743C120.713 7.21743 121.678 8.26101 121.678 9.63543C121.678 11.0099 120.713 12.0534 119.28 12.0534C117.782 12.0534 116.865 10.9629 116.865 9.63543ZM123.311 9.63543V2.82544H121.579V6.778C121.03 6.09792 120.197 5.67137 119.065 5.67137C116.834 5.67137 115.083 7.33154 115.083 9.63727C115.083 11.943 116.833 13.6032 119.065 13.6032C120.197 13.6032 121.03 13.1762 121.579 12.4966V13.4136H123.311V9.63543ZM79.8631 7.13966C80.9785 7.13966 81.6948 7.80318 81.8777 8.97146H77.7476C77.9324 7.88094 78.6303 7.13966 79.8636 7.13966M79.898 5.66723C77.5653 5.66723 75.9333 7.27771 75.9333 9.63313C75.9333 12.0346 77.6307 13.599 80.0139 13.599C81.2128 13.599 82.3107 13.3151 83.2768 12.5407L82.4286 11.3237C81.7613 11.8298 80.9116 12.1137 80.1128 12.1137C78.9974 12.1137 77.9819 11.6237 77.7321 10.264H83.6425C83.6595 10.0597 83.6769 9.85354 83.6769 9.63267C83.6595 7.27816 82.125 5.66677 79.897 5.66677M100.795 9.63267C100.795 8.30519 101.711 7.21466 103.209 7.21466C104.641 7.21466 105.607 8.25825 105.607 9.63267C105.607 11.0071 104.641 12.0507 103.209 12.0507C101.711 12.0507 100.794 10.9602 100.794 9.63267M107.238 9.63267V5.85773H105.509V6.778C104.958 6.09792 104.127 5.67137 102.994 5.67137C100.764 5.67137 99.0128 7.33154 99.0128 9.63727C99.0128 11.943 100.763 13.6032 102.994 13.6032C104.127 13.6032 104.958 13.1762 105.509 12.4966V13.4136H107.239V9.63543L107.238 9.63267ZM91.0199 9.63267C91.0199 11.9237 92.7009 13.5986 95.2664 13.5986C96.4652 13.5986 97.264 13.3455 98.1277 12.6981L97.2965 11.3706C96.6466 11.8137 95.9642 12.0507 95.2111 12.0507C93.8294 12.0346 92.8134 11.0867 92.8134 9.63267C92.8134 8.17865 93.8294 7.23123 95.2111 7.21466C95.9623 7.21466 96.6447 7.45163 97.2965 7.89474L98.1277 6.56726C97.2625 5.91985 96.4638 5.66677 95.2664 5.66677C92.7009 5.66677 91.0199 7.3412 91.0199 9.63267ZM113.334 5.66677C112.335 5.66677 111.685 6.10988 111.235 6.7734V5.85773H109.52V13.4095H111.253V9.17622C111.253 7.92649 111.819 7.23215 112.95 7.23215C113.321 7.22708 113.688 7.29166 114.032 7.42219L114.566 5.87429C114.183 5.73119 113.683 5.66815 113.333 5.66815M66.938 6.45821C66.1053 5.93733 64.9579 5.66815 63.6921 5.66815C61.6755 5.66815 60.3773 6.5852 60.3773 8.0857C60.3773 9.31702 61.3438 10.0767 63.1237 10.3137L63.9414 10.4241C64.8904 10.5506 65.3386 10.7876 65.3386 11.2142C65.3386 11.7981 64.7081 12.1312 63.5243 12.1312C62.3254 12.1312 61.4602 11.7677 60.8768 11.3412L60.0635 12.6217C61.0126 13.2852 62.2114 13.6018 63.5097 13.6018C65.8085 13.6018 67.1407 12.5748 67.1407 11.1369C67.1407 9.80936 66.0922 9.11502 64.3599 8.87805L63.5442 8.76578C62.7949 8.67375 62.1945 8.53065 62.1945 8.0245C62.1945 7.47234 62.7604 7.14012 63.71 7.14012C64.726 7.14012 65.7096 7.50363 66.1916 7.78753L66.9409 6.46004L66.938 6.45821ZM89.2716 5.66953C88.273 5.66953 87.6227 6.11264 87.175 6.77615V5.85773H85.4597V13.4095H87.1906V9.17622C87.1906 7.92649 87.7565 7.23215 88.888 7.23215C89.2585 7.22708 89.6264 7.29166 89.9705 7.42219L90.5039 5.87429C90.1208 5.73119 89.6213 5.66815 89.2706 5.66815M74.5012 5.85773H71.6709V3.56672H69.9211V5.85773H68.3066V7.35869H69.9211V10.8037C69.9211 12.5559 70.6379 13.5995 72.6855 13.5995C73.4367 13.5995 74.3019 13.3786 74.8509 13.0156L74.3509 11.6094C73.8344 11.8933 73.2684 12.0364 72.8183 12.0364C71.9531 12.0364 71.6709 11.5303 71.6709 10.7724V7.36007H74.5012V5.85773ZM48.6234 13.4113V8.67191C48.6234 6.88705 47.4246 5.6861 45.4919 5.66999C44.4759 5.65389 43.4279 5.9539 42.6941 7.01359C42.1451 6.17614 41.2799 5.66999 40.0636 5.66999C39.2134 5.66999 38.3827 5.90696 37.7323 6.79134V5.85773H36V13.4095H37.7459V9.22223C37.7459 7.91131 38.5122 7.21466 39.6955 7.21466C40.8449 7.21466 41.4264 7.92557 41.4264 9.20567V13.4085H43.1762V9.22131C43.1762 7.91039 43.9749 7.21374 45.1238 7.21374C46.3057 7.21374 46.8697 7.92465 46.8697 9.20475V13.4076L48.6234 13.4113Z" fill="white"/>
<path d="M31.5717 15.494V15.1172H31.4741L31.3611 15.3758L31.2488 15.1172H31.1508V15.494H31.2202V15.2101L31.3258 15.4551H31.3977L31.5033 15.2095V15.494H31.572H31.5717ZM30.9522 15.494V15.1817H31.0772V15.1181H30.7578V15.1817H30.8828V15.494H30.9516H30.9522Z" fill="white"/>
<path d="M12.5625 9.47884C12.5625 6.38284 14.005 3.62491 16.2513 1.84758C14.551 0.500254 12.4479 -0.230988 10.2827 -0.227773C4.94875 -0.227773 0.625 4.11796 0.625 9.47884C0.625 14.8397 4.94875 19.1855 10.2827 19.1855C12.448 19.1887 14.5511 18.4575 16.2514 17.1101C14.0053 15.3331 12.5625 12.575 12.5625 9.47884Z" fill="white" fill-opacity="0.5"/>
<path d="M31.885 9.47933C31.885 14.8402 27.5612 19.1859 22.2273 19.1859C20.0618 19.1891 17.9585 18.4579 16.2578 17.1106C18.5047 15.3333 19.9472 12.5755 19.9472 9.47933C19.9472 6.38318 18.5047 3.6254 16.2578 1.84807C17.9584 0.500783 20.0617 -0.230443 22.2272 -0.227285C27.5611 -0.227285 31.8848 4.11845 31.8848 9.47933" fill="white"/>
</g>
<defs>
<clipPath id="clip0_566_1162">
<rect width="126" height="20" fill="white"/>
</clipPath>
</defs>
</svg>
