<svg width="54" height="18" viewBox="0 0 54 18" fill="none" xmlns="http://www.w3.org/2000/svg">
<g clip-path="url(#clip0_566_1168)">
<path d="M36.1722 0.345947C32.3379 0.345947 28.9115 2.2722 28.9115 5.83111C28.9115 9.91247 34.9884 10.1943 34.9884 12.2447C34.9884 13.108 33.9677 13.8809 32.2243 13.8809C29.7501 13.8809 27.9008 12.801 27.9008 12.801L27.1096 16.3923C27.1096 16.3923 29.2398 17.3045 32.0682 17.3045C36.2602 17.3045 39.5588 15.2836 39.5588 11.6639C39.5588 7.35122 33.4566 7.07768 33.4566 5.17463C33.4566 4.49825 34.2945 3.75726 36.0329 3.75726C37.9943 3.75726 39.5946 4.54262 39.5946 4.54262L40.369 1.07404C40.369 1.07404 38.6278 0.345947 36.1722 0.345947ZM1.09286 0.607752L1 1.13131C1 1.13131 2.61308 1.41742 4.06589 1.98824C5.93649 2.64272 6.06978 3.02377 6.38481 4.20721L9.81778 17.0345H14.4198L21.5096 0.607752H16.9181L12.3625 11.7764L10.5036 2.3093C10.3331 1.22582 9.46957 0.607752 8.41254 0.607752H1.09286ZM23.3558 0.607752L19.754 17.0345H24.1323L27.7215 0.607699H23.3558V0.607752ZM47.7752 0.607752C46.7195 0.607752 46.1601 1.15562 45.7496 2.11298L39.3351 17.0345H43.9265L44.8149 14.5475H50.4085L50.9488 17.0345H55L51.4657 0.607752H47.7752ZM48.3724 5.04575L49.7334 11.2099H46.0872L48.3724 5.04575Z" fill="white"/>
</g>
<defs>
<clipPath id="clip0_566_1168">
<rect width="54" height="17" fill="white" transform="translate(0 0.5)"/>
</clipPath>
</defs>
</svg>
